<?xml version="1.0" encoding="iso-8859-1"?>
<!-- Generator: Adobe Illustrator 16.0.0, SVG Export Plug-In . SVG Version: 6.00 Build 0)  -->
<!DOCTYPE svg PUBLIC "-//W3C//DTD SVG 1.1//EN" "http://www.w3.org/Graphics/SVG/1.1/DTD/svg11.dtd">
<svg version="1.1" id="Capa_1" xmlns="http://www.w3.org/2000/svg" xmlns:xlink="http://www.w3.org/1999/xlink" x="0px" y="0px"
	 width="438.67px" height="438.67px" viewBox="0 0 438.67 438.67" style="enable-background:new 0 0 438.67 438.67;"
	 xml:space="preserve">
<g>
	<g>
		<path d="M303.08,242.014c14.725,13.375,31.861,20.155,50.934,20.155l0.365-0.001c30.672-0.139,54.459-13.541,70.705-39.835
			c5.643-9.132,8.51-20.006,8.523-32.321L433.594,77.08c0-6.735-5.48-12.216-12.217-12.216c-6.734,0-12.453,5.48-12.453,12.216
			v59.203c0,2.392-1.795,4.196-4.174,4.195c-2.377,0-4.168-1.797-4.168-4.18V27.637c0,0,0.287-12.86-12.217-12.86
			c-12.502,0-12.215,12.871-12.215,12.871v100.875c0.014,0.413-0.027,1.795-1.068,2.902c-0.531,0.564-1.508,1.236-3.146,1.236
			c-1.652,0-2.633-0.672-3.166-1.235c-1.029-1.092-1.074-2.444-1.062-2.845V12.216C367.707,5.48,362.227,0,355.492,0
			c-6.736,0-12.217,5.479-12.217,12.216v116.582c0.021,0.455-0.004,1.844-1.027,2.965c-0.531,0.58-1.516,1.271-3.193,1.271
			c-1.639,0-2.613-0.677-3.141-1.244c-1.043-1.12-1.076-2.52-1.062-2.953l-0.018-101.723c0-6.736-5.48-12.216-12.217-12.216
			s-12.215,5.479-12.215,12.216v131.713c0.018,0.474-0.008,2.25-1.227,3.536c-0.518,0.546-1.447,1.197-2.938,1.197
			c-1.5,0-2.426-0.658-2.939-1.21c-1.188-1.28-1.195-3.037-1.17-3.541v-41.466c0-6.847-5.57-12.415-12.416-12.415
			s-12.416,5.568-12.416,12.415v62.418C277.299,214.305,286.043,226.541,303.08,242.014z"/>
		<path d="M17.275,99.262h116.584c0.453-0.023,1.844,0.002,2.965,1.027c0.58,0.532,1.27,1.517,1.27,3.193
			c0,1.639-0.676,2.613-1.244,3.142c-1.119,1.042-2.52,1.076-2.953,1.06l-101.723,0.02c-6.736,0-12.217,5.48-12.217,12.217
			c0,6.737,5.481,12.214,12.217,12.214h131.713c0.473-0.017,2.25,0.008,3.535,1.227c0.547,0.518,1.197,1.447,1.197,2.938
			c0,1.499-0.656,2.424-1.209,2.937c-1.279,1.19-3.037,1.196-3.541,1.17h-41.467c-6.846,0-12.414,5.57-12.414,12.417
			c0,6.846,5.568,12.415,12.414,12.415h62.42c34.543,0,46.777-8.744,62.252-25.78c13.375-14.726,20.156-31.861,20.156-50.934
			l-0.002-0.366c-0.139-30.671-13.541-54.459-39.834-70.705c-9.133-5.643-20.008-8.51-32.322-8.523L82.142,8.945
			c-6.736,0-12.215,5.479-12.215,12.216c0,6.735,5.479,12.453,12.215,12.453l59.203,0.001c2.393,0,4.195,1.794,4.195,4.173
			c0,2.377-1.797,4.169-4.18,4.169H32.697c0,0-12.859-0.287-12.859,12.216s12.871,12.216,12.871,12.216h100.873
			c0.414-0.015,1.797,0.026,2.904,1.068c0.563,0.53,1.234,1.507,1.234,3.146c0,1.652-0.67,2.633-1.234,3.165
			c-1.092,1.03-2.443,1.074-2.844,1.063H17.275c-6.734,0-12.215,5.479-12.215,12.216C5.062,93.782,10.542,99.262,17.275,99.262z"/>
		<path d="M135.588,196.656c-14.725-13.375-31.861-20.155-50.934-20.155l-0.365,0.001c-30.672,0.139-54.459,13.541-70.705,39.835
			c-5.643,9.132-8.51,20.006-8.523,32.321L5.076,361.59c0,6.735,5.48,12.216,12.217,12.216c6.734,0,12.453-5.479,12.453-12.216
			v-59.203c0-2.392,1.795-4.195,4.174-4.195c2.377,0,4.168,1.797,4.168,4.181v108.662c0,0-0.287,12.859,12.217,12.859
			c12.502,0,12.215-12.871,12.215-12.871V310.146c-0.014-0.412,0.027-1.795,1.068-2.901c0.531-0.563,1.508-1.236,3.146-1.236
			c1.652,0,2.633,0.673,3.166,1.235c1.029,1.092,1.074,2.443,1.063,2.845v116.365c0,6.736,5.479,12.216,12.215,12.216
			c6.736,0,12.217-5.479,12.217-12.216V309.872c-0.023-0.455,0.002-1.845,1.027-2.966c0.531-0.579,1.516-1.271,3.193-1.271
			c1.639,0,2.613,0.677,3.141,1.244c1.043,1.12,1.076,2.521,1.061,2.953l0.02,101.724c0,6.736,5.48,12.216,12.217,12.216
			c6.737,0,12.215-5.479,12.215-12.216V279.843c-0.018-0.474,0.008-2.25,1.227-3.536c0.518-0.546,1.447-1.197,2.938-1.197
			c1.5,0,2.424,0.658,2.938,1.211c1.189,1.279,1.195,3.037,1.17,3.541v41.466c0,6.847,5.57,12.415,12.416,12.415
			s12.416-5.568,12.416-12.415v-62.418C161.37,224.365,152.625,212.129,135.588,196.656z"/>
		<path d="M421.393,339.408H304.809c-0.451,0.023-1.844-0.002-2.965-1.027c-0.58-0.531-1.27-1.518-1.27-3.193
			c0-1.639,0.676-2.612,1.244-3.142c1.119-1.042,2.52-1.076,2.953-1.06l101.723-0.021c6.736,0,12.217-5.479,12.217-12.217
			s-5.479-12.215-12.217-12.215H274.781c-0.473,0.017-2.25-0.009-3.535-1.228c-0.547-0.518-1.197-1.447-1.197-2.938
			c0-1.499,0.656-2.424,1.209-2.938c1.279-1.189,3.037-1.195,3.541-1.17h41.467c6.848,0,12.414-5.57,12.414-12.417
			c0-6.846-5.566-12.415-12.414-12.415h-62.419c-34.543,0-46.777,8.744-62.252,25.78c-13.375,14.726-20.156,31.86-20.156,50.935
			l0.002,0.365c0.139,30.671,13.541,54.459,39.834,70.705c9.133,5.644,20.009,8.51,32.322,8.523l112.933-0.016
			c6.734,0,12.215-5.479,12.215-12.216c0-6.734-5.48-12.453-12.215-12.453l-59.203-0.001c-2.395,0-4.195-1.794-4.195-4.173
			c0-2.377,1.797-4.169,4.18-4.169h108.662c0,0,12.859,0.287,12.859-12.216s-12.871-12.216-12.871-12.216H305.086
			c-0.414,0.015-1.797-0.026-2.904-1.068c-0.562-0.53-1.232-1.507-1.232-3.146c0-1.652,0.67-2.634,1.232-3.165
			c1.094-1.03,2.443-1.074,2.846-1.063h116.365c6.734,0,12.217-5.479,12.217-12.216
			C433.607,344.889,428.127,339.408,421.393,339.408z"/>
	</g>
</g>
<g>
</g>
<g>
</g>
<g>
</g>
<g>
</g>
<g>
</g>
<g>
</g>
<g>
</g>
<g>
</g>
<g>
</g>
<g>
</g>
<g>
</g>
<g>
</g>
<g>
</g>
<g>
</g>
<g>
</g>
</svg>
