<?xml version="1.0" encoding="iso-8859-1"?>
<!-- Generator: Adobe Illustrator 16.0.0, SVG Export Plug-In . SVG Version: 6.00 Build 0)  -->
<!DOCTYPE svg PUBLIC "-//W3C//DTD SVG 1.1//EN" "http://www.w3.org/Graphics/SVG/1.1/DTD/svg11.dtd">
<svg version="1.1" id="Capa_1" xmlns="http://www.w3.org/2000/svg" xmlns:xlink="http://www.w3.org/1999/xlink" x="0px" y="0px"
	 width="435.584px" height="435.584px" viewBox="0 0 435.584 435.584" style="enable-background:new 0 0 435.584 435.584;"
	 xml:space="preserve">
<g>
	<g>
		<path d="M161.59,257.377c12.308,11.834,26.224,15.928,28.184,24.273c1.818,7.727-3.969,107-6.835,153.934h88.63
			c-4.044-46.313-12.146-143.615-9.78-153.934c3.466-15.097,21.957-32.906,29.556-45.203c6.005-9.715,9.055-21.278,9.063-34.373
			l0.019-120.104c0-7.163-5.859-12.989-13.021-12.989c-7.163,0-13.243,5.826-13.243,12.989v62.962
			c-0.001,2.545-1.911,4.464-4.44,4.462c-2.526,0-4.435-1.911-4.435-4.443V29.391c0,0,0.309-13.676-12.988-13.676
			c-13.296,0-12.991,13.688-12.991,13.688v107.275c0.016,0.439-0.028,1.912-1.14,3.089c-0.562,0.601-1.6,1.314-3.345,1.314
			c-1.756,0-2.799-0.714-3.362-1.314c-1.101-1.161-1.146-2.6-1.134-3.024V12.99C230.326,5.827,224.5,0,217.335,0
			c-7.16,0-12.991,5.827-12.991,12.99v123.982c0.026,0.482,0,1.963-1.093,3.153c-0.567,0.617-1.609,1.352-3.396,1.352
			c-1.743,0-2.778-0.719-3.339-1.321c-1.107-1.193-1.147-2.681-1.125-3.142l-0.026-108.18c0-7.165-5.827-12.993-12.987-12.993
			c-7.166,0-12.992,5.828-12.992,12.993v140.074c0.021,0.501-0.009,2.393-1.304,3.759c-0.553,0.58-1.542,1.274-3.121,1.274
			c-1.598,0-2.581-0.7-3.126-1.287c-1.271-1.362-1.275-3.229-1.245-3.766v-44.1c0-7.279-5.924-13.202-13.206-13.202
			c-7.28,0-13.2,5.923-13.2,13.202v66.382C134.18,227.908,143.955,240.408,161.59,257.377z M211.524,164.556
			c5.507,0,10.71,1.807,14.956,5.143c4.252-3.336,9.45-5.143,14.957-5.143c13.396,0,24.295,10.9,24.295,24.296
			c0,17.433-12.969,26.127-23.387,33.113c-5.817,3.896-11.315,7.582-12.451,11.584c-0.435,1.498-1.787,2.541-3.343,2.572h-0.071
			c-1.526,0-2.886-0.98-3.365-2.438c-1.363-4.154-6.854-7.845-12.667-11.748c-10.341-6.947-23.215-15.594-23.215-33.084
			C187.233,175.456,198.133,164.556,211.524,164.556z"/>
		<path d="M281.41,435.584h53.485c4.682-35.877,13.517-101.895,15.787-106.969c2.577-5.752,13.187-6.777,23.72-13.611
			c15.09-9.803,23.885-17.465,28.988-43.986l9.227-47.924c1.009-5.255-2.446-10.354-7.7-11.366
			c-5.258-1.011-10.353,2.44-11.368,7.696l-6.124,31.836c-0.058,0.389-0.317,1.74-1.426,2.547c-0.473,0.351-1.277,0.715-2.427,0.492
			c-1.148-0.219-1.767-0.857-2.082-1.354c-0.747-1.164-0.504-2.531-0.421-2.896l19.465-101.123
			c0.994-5.172-2.404-10.19-7.577-11.184c-5.167-0.996-10.188,2.401-11.182,7.572l-15.045,78.098
			c-0.055,0.334-0.285,1.405-1.255,2.11c-0.487,0.357-1.336,0.734-2.596,0.49c-1.283-0.25-1.94-0.922-2.261-1.447
			c-0.624-1.014-0.438-2.082-0.354-2.428l17.229-89.509c0.996-5.172-2.404-10.188-7.576-11.186
			c-5.167-0.993-10.188,2.403-11.18,7.574l-17.2,89.343c-0.046,0.309-0.278,1.34-1.232,2.027c-0.49,0.354-1.344,0.725-2.613,0.479
			c-1.259-0.242-1.904-0.9-2.229-1.412c-0.638-1.004-0.469-2.07-0.395-2.385l14.908-77.448c0,0,2.116-9.841-7.48-11.688
			s-11.28,8.069-11.28,8.069l-16.053,83.427c-0.354,1.828-2.015,3.047-3.819,2.592c-2.032-0.512-2.589-3.836-2.589-3.836
			c-4.802,15.586-9.713,25.66-17.445,34.865c-6.836,8.141-10.452,13.549-10.452,13.549c0.046,5.392,0.967,10.502,2.779,15.267
			c3.777,9.928,14.653,25.36,15.058,36.735c0.211,5.902-10.889,47.107-20.343,81.011
			C279.367,411.936,280.406,424.121,281.41,435.584z M308.74,251.062c1.858-9.668,11.241-16.026,20.913-14.162
			c3.979,0.765,7.481,2.791,10.086,5.791c3.529-1.821,7.538-2.403,11.508-1.639c9.673,1.865,16.023,11.246,14.167,20.918
			c-2.435,12.627-12.925,17.08-21.362,20.66c-4.733,2.012-9.213,3.906-10.776,6.719c-0.543,0.986-1.662,1.506-2.769,1.293
			c-0.018-0.004-0.032-0.006-0.051-0.01c-1.117-0.236-1.949-1.176-2.052-2.318c-0.268-3.049-3.721-6.473-7.387-10.096
			C314.47,271.725,306.319,263.646,308.74,251.062z"/>
		<path d="M84.9,328.615c2.271,5.074,11.106,71.092,15.788,106.969h66.704c-8.148-28.498-30.799-108.572-30.502-116.98
			c0.403-11.375,11.279-26.809,15.057-36.735c2.057-5.421,2.977-11.273,2.756-17.496c-13.394-12.896-23.405-24.211-27.83-45.31
			c-0.089,1.463-1.105,2.668-2.633,2.961c-1.822,0.353-3.467-0.764-3.819-2.592l-16.053-83.427c0,0-1.683-9.917-11.28-8.069
			c-9.597,1.848-7.482,11.688-7.482,11.688l14.91,77.448c0.074,0.313,0.243,1.381-0.395,2.385c-0.325,0.512-0.972,1.17-2.229,1.412
			c-1.271,0.246-2.123-0.123-2.614-0.479c-0.954-0.688-1.186-1.72-1.232-2.027L76.849,129.02c-0.994-5.171-6.016-8.567-11.182-7.574
			c-5.173,0.998-8.575,6.014-7.577,11.186l17.228,89.509c0.086,0.346,0.272,1.414-0.353,2.428c-0.319,0.525-0.978,1.197-2.261,1.447
			c-1.26,0.244-2.107-0.133-2.596-0.49c-0.969-0.705-1.2-1.776-1.254-2.11l-15.045-78.098c-0.994-5.171-6.015-8.568-11.181-7.572
			c-5.174,0.993-8.572,6.012-7.578,11.184l19.465,101.123c0.083,0.363,0.327,1.729-0.421,2.896
			c-0.316,0.496-0.934,1.135-2.082,1.354c-1.149,0.223-1.954-0.143-2.427-0.492c-1.107-0.807-1.368-2.158-1.426-2.547l-6.124-31.836
			c-1.016-5.256-6.11-8.707-11.368-7.696c-5.254,1.013-8.709,6.111-7.7,11.366l9.226,47.924
			c5.104,26.521,13.899,34.185,28.989,43.986C71.715,321.838,82.323,322.863,84.9,328.615z M84.337,241.053
			c3.97-0.766,7.978-0.184,11.508,1.639c2.604-3,6.105-5.026,10.086-5.791c9.672-1.864,19.054,4.494,20.913,14.162
			c2.422,12.584-5.73,20.662-12.278,27.156c-3.666,3.623-7.119,7.047-7.386,10.096c-0.103,1.144-0.935,2.082-2.052,2.318
			c-0.019,0.004-0.033,0.006-0.051,0.01c-1.105,0.213-2.225-0.307-2.768-1.293c-1.564-2.812-6.043-4.707-10.777-6.719
			c-8.438-3.58-18.929-8.033-21.362-20.66C68.313,252.299,74.664,242.918,84.337,241.053z"/>
	</g>
</g>
<g>
</g>
<g>
</g>
<g>
</g>
<g>
</g>
<g>
</g>
<g>
</g>
<g>
</g>
<g>
</g>
<g>
</g>
<g>
</g>
<g>
</g>
<g>
</g>
<g>
</g>
<g>
</g>
<g>
</g>
</svg>
