<?xml version="1.0" encoding="iso-8859-1"?>
<!-- Generator: Adobe Illustrator 18.0.0, SVG Export Plug-In . SVG Version: 6.00 Build 0)  -->
<!DOCTYPE svg PUBLIC "-//W3C//DTD SVG 1.1//EN" "http://www.w3.org/Graphics/SVG/1.1/DTD/svg11.dtd">
<svg version="1.1" id="Capa_1" xmlns="http://www.w3.org/2000/svg" xmlns:xlink="http://www.w3.org/1999/xlink" x="0px" y="0px"
	 viewBox="0 0 462.942 462.942" style="enable-background:new 0 0 462.942 462.942;" xml:space="preserve">
<g>
	<path d="M138.624,290.159c10.267,4.257,19.576,10.73,26.85,19.545c5.417,6.561,9.323,13.843,12.106,21.422
		c8.65-1.698,20.996-8.965,40.018-25.441l-53.771-53.778C148.293,269.768,140.944,281.666,138.624,290.159z"/>
	<path d="M461.804,7.73C446.448-7.625,278.028,135.909,192.559,221.362c-4.789,4.789-9.188,9.295-13.243,13.536l55.313,55.305
		c4.249-4.048,8.739-8.44,13.528-13.229C333.624,191.507,477.158,23.084,461.804,7.73z"/>
	<path d="M112.24,299.969c-12.031,0-24.108,4.018-34.106,12.264C23.106,357.653,71.19,416.691,0,446.279
		c10.296,7.086,22.448,10.072,35.349,10.072c42.502,0,93.279-32.355,114.066-57.003c21.984-23.751,23.092-57.049,4.235-79.886
		C143.04,306.613,127.7,299.969,112.24,299.969z"/>
</g>
<g>
</g>
<g>
</g>
<g>
</g>
<g>
</g>
<g>
</g>
<g>
</g>
<g>
</g>
<g>
</g>
<g>
</g>
<g>
</g>
<g>
</g>
<g>
</g>
<g>
</g>
<g>
</g>
<g>
</g>
</svg>
